<?xml version="1.0" encoding="UTF-8" standalone="no"?>
<!DOCTYPE svg PUBLIC "-//W3C//DTD SVG 1.1//EN" "http://www.w3.org/Graphics/SVG/1.1/DTD/svg11.dtd">
<svg width="100%" height="100%" viewBox="0 0 362 362" version="1.1" xmlns="http://www.w3.org/2000/svg" xmlns:xlink="http://www.w3.org/1999/xlink" xml:space="preserve" xmlns:serif="http://www.serif.com/" style="fill-rule:evenodd;clip-rule:evenodd;stroke-linejoin:round;stroke-miterlimit:2;">
    <g transform="matrix(1.20143,0,0,1.20143,-590.029,-112.975)">
        <g transform="matrix(-0.993121,0,0,0.998527,1582.65,-209.35)">
            <path d="M837.746,427.084L947.523,523.154L795.804,544.807L837.746,427.084Z" style="fill:rgb(124,142,154);"/>
        </g>
        <g transform="matrix(3.70898e-17,-0.605723,1.52102,9.31357e-17,103.884,787.253)">
            <path d="M1008.8,354.966L1140.89,399.388L1076.19,425.409L941.045,425.261L1008.8,354.966Z" style="fill:rgb(124,142,154);"/>
        </g>
        <g transform="matrix(1.06094,0,0,1.06094,-370.025,-238.68)">
            <circle cx="1004.68" cy="374.903" r="29.107" style="fill:rgb(239,241,243);"/>
        </g>
        <g transform="matrix(0.682694,0,0,0.682694,11.0049,-92.8327)">
            <circle cx="1004.68" cy="374.903" r="29.107" style="fill:rgb(77,91,100);"/>
        </g>
        <g transform="matrix(-0.993121,0,0,0.998527,1582.65,-209.35)">
            <path d="M837.666,427.031L947.509,523.168L839.607,563.901L837.666,427.031Z" style="fill:rgb(171,183,192);"/>
        </g>
        <g transform="matrix(-0.993121,0,0,0.998527,1582.65,-209.35)">
            <path d="M892.161,544.015L947.516,523.154L922.347,577.885L892.161,544.015Z" style="fill:rgb(124,142,154);"/>
        </g>
        <g transform="matrix(-0.993121,0,0,0.998527,1639.85,-328.041)">
            <path d="M882.091,422.698L930.761,429.912L902.608,457.674L882.091,422.698Z" style="fill:rgb(96,113,124);"/>
        </g>
        <g transform="matrix(0.993121,0,0,0.998527,-299.223,-209.35)">
            <path d="M837.746,427.084L947.523,523.154L795.804,544.807L837.746,427.084Z" style="fill:rgb(124,142,154);"/>
        </g>
        <g transform="matrix(-3.70898e-17,-0.605723,-1.52102,9.31357e-17,1179.55,787.253)">
            <path d="M1008.8,354.966L1140.89,399.388L1076.19,425.409L941.045,425.261L1008.8,354.966Z" style="fill:rgb(124,142,154);"/>
        </g>
        <g transform="matrix(-1.06094,0,0,1.06094,1653.46,-238.68)">
            <circle cx="1004.68" cy="374.903" r="29.107" style="fill:rgb(239,241,243);"/>
        </g>
        <g transform="matrix(-0.682694,0,0,0.682694,1272.43,-92.8327)">
            <circle cx="1004.68" cy="374.903" r="29.107" style="fill:rgb(77,91,100);"/>
        </g>
        <g transform="matrix(0.993121,0,0,0.998527,-299.223,-209.35)">
            <path d="M837.666,427.031L947.509,523.168L839.607,563.901L837.666,427.031Z" style="fill:rgb(171,183,192);"/>
        </g>
        <g transform="matrix(0.993121,0,0,0.998527,-299.223,-209.35)">
            <path d="M892.161,544.015L947.516,523.154L922.347,577.885L892.161,544.015Z" style="fill:rgb(124,142,154);"/>
        </g>
        <g transform="matrix(1.10956,0,0,1.10956,-60.3202,-291.968)">
            <path d="M632.763,545.491L655.382,594.256L632.763,618.926L632.763,619.029L632.716,618.978L632.669,619.029L632.669,618.926L610.05,594.256L632.668,545.491L632.668,545.287L632.716,545.389L632.763,545.287L632.763,545.491Z" style="fill:rgb(96,113,124);"/>
        </g>
        <g transform="matrix(0.993121,0,0,0.998527,-356.421,-328.041)">
            <path d="M882.091,422.698L930.761,429.912L902.608,457.674L882.091,422.698Z" style="fill:rgb(96,113,124);"/>
        </g>
        <g transform="matrix(1.10956,0,0,1.10956,-60.3202,-291.968)">
            <path d="M632.737,419.734L731.079,458.997L632.763,545.187L632.763,545.27L632.716,545.229L632.668,545.27L632.668,545.187L534.352,458.997L632.695,419.734L632.695,419.717L632.716,419.725L632.737,419.717L632.737,419.734Z" style="fill:rgb(214,220,224);"/>
        </g>
        <g transform="matrix(1.10956,0,0,1.10956,-60.3202,-291.968)">
            <path d="M694.61,348.366L731.458,385.474C681.549,384.229 650.551,414.896 632.778,466.354L632.778,466.712L632.716,466.533L632.654,466.712L632.654,466.354C614.88,414.896 583.882,384.229 533.973,385.474L570.821,348.366L694.61,348.366Z" style="fill:rgb(154,170,180);"/>
        </g>
        <g transform="matrix(1.10956,0,0,1.10956,-60.3202,-291.968)">
            <path d="M632.796,412.507L648.624,431.957C642.137,442.934 636.636,454.356 632.723,466.621L632.723,466.668L632.716,466.645L632.708,466.668L632.708,466.621C628.795,454.356 623.295,442.934 616.808,431.957L632.635,412.507L632.635,412.309L632.716,412.408L632.796,412.309L632.796,412.507Z" style="fill:rgb(255,139,0);"/>
        </g>
    </g>
</svg>
